<?xml version="1.0" encoding="utf-8"?>
<!-- Generator: Adobe Illustrator 27.5.0, SVG Export Plug-In . SVG Version: 6.00 Build 0)  -->
<svg version="1.1" xmlns="http://www.w3.org/2000/svg" xmlns:xlink="http://www.w3.org/1999/xlink" x="0px" y="0px"
	 viewBox="0 0 3710 3710" style="enable-background:new 0 0 3710 3710;" xml:space="preserve">
<g id="Background">
	<g>
		<g>
			<rect style="fill:#FFFFFF;" width="3710" height="3710"/>
		</g>
	</g>
</g>
<g id="Illustration">
	<g>
		<path style="fill:#F4F7FA;" d="M3221.442,1650.966c-76.318-499.541-389.224-1113.263-1007.405-1177.489
			c0,0-469.351-57.09-932.029,29.435c-274.599,51.352-515.383,204.217-667.741,423.922
			C461.909,1146.54,411.016,1414.44,472.781,1669.85c40.116,165.891,67.224,337.582,59.784,508.045
			c-12.948,296.675-5.498,573.599,282.418,750.527c257.076,157.978,580.61,297.308,889.266,321.712
			c209.76,16.585,444.993-10.253,647.163-64.864C3381.711,2906.954,3297.76,2150.507,3221.442,1650.966z"/>
		<g>
			<g>
				<g>
					<g>
						<path style="fill:#97A6B7;" d="M2767.283,1185.983l-79.807,0.137c-5.497-52.717-18.172-103.321-37.03-150.862l67.477-39.132
							c18.441-10.695,24.747-34.815,14.117-53.931l-28.355-50.992c-10.695-19.233-34.445-26.296-53.08-15.72l-66.637,37.82
							c-31.014-43.461-68.029-82.646-109.955-116.35l38.327-65.839c10.998-18.891,4.474-43.752-14.605-55.59l-51.011-31.65
							c-19.285-11.965-44.027-6.309-55.229,12.693l-38.415,65.165c-49.359-22.991-102.697-39.577-158.955-48.473v-77.277
							c0-22.798-18.753-42.134-41.96-43.193l-62.108-2.834c-23.504-1.072-42.618,16.739-42.618,39.787v78.126
							c-57.992,4.832-113.897,17.868-166.451,38.04l-41.459-70.63c-12.183-20.756-39.243-28.803-60.479-17.912l-56.797,29.13
							c-21.478,11.016-28.853,36.938-16.43,57.834l42.956,72.26c-47.016,33.239-89.046,73.031-124.647,118.149l-77.699-43.96
							c-22.029-12.463-50.298-6.002-63.099,14.501l-34.158,54.708c-12.887,20.641-5.236,47.425,17.046,59.756l80.399,44.491
							c-22.293,51.341-37.352,106.375-43.903,163.919l-96.44,0.166c-25.955,0.045-47.066,19.718-47.066,43.94v64.418
							c0,24.222,21.111,43.596,47.066,43.273l99.002-1.232c8.358,56.197,24.867,109.696,48.326,159.365l-87.383,49.594
							c-22.282,12.646-29.933,39.539-17.046,59.997l34.158,54.225c12.802,20.322,41.071,26.383,63.099,13.607l88.383-51.256
							c35.314,41.768,76.385,78.467,121.961,109.012l-50.955,86.437c-12.422,21.072-5.048,46.89,16.43,57.601l56.797,28.326
							c21.236,10.591,48.296,2.16,60.479-18.768l50.535-86.809c49.901,17.6,102.711,28.77,157.375,32.626v96.774
							c0,23.048,19.114,40.589,42.618,39.183l62.108-3.714c23.206-1.388,41.96-20.99,41.96-43.787v-95.722
							c53.055-9.068,103.512-24.942,150.484-46.53l46.887,78.871c11.202,18.844,35.945,24.149,55.229,11.911l51.011-32.372
							c19.079-12.107,25.603-37.061,14.605-55.797l-45.515-77.542c40.741-32.242,77.012-69.541,107.867-110.795l75.913,42.01
							c18.635,10.312,42.385,2.913,53.08-16.471l28.355-51.394c10.63-19.267,4.324-43.297-14.117-53.731l-73.409-41.532
							c19.881-46.639,33.794-96.288,40.814-148.004l81.955-1.02c21.125-0.263,38.2-18.11,38.2-39.863v-57.852
							C2805.483,1203.552,2788.408,1185.946,2767.283,1185.983z M2121.183,1662.217c-236.148,8.763-433.768-174.512-433.768-409.641
							c0-235.128,197.62-420.929,433.768-415.185c228.123,5.549,407.441,188.951,407.441,409.808
							C2528.624,1468.058,2349.306,1653.752,2121.183,1662.217z"/>
						<polygon style="fill:#97A6B7;" points="1856.944,614.339 1800.103,612.379 1780.503,663.34 						"/>
						<polygon style="fill:#97A6B7;" points="2420.569,637.859 2486.112,638.513 2486.112,686.86 						"/>
						<polygon style="fill:#97A6B7;" points="2670.355,871.076 2735.689,873.716 2719.355,910.303 						"/>
						<polygon style="fill:#97A6B7;" points="2772.93,1186.667 2838.917,1191.893 2817.357,1223.907 						"/>
						<polygon style="fill:#97A6B7;" points="2663.168,1639.433 2727.196,1648.579 2735.036,1596.312 						"/>
						<polygon style="fill:#97A6B7;" points="2418.165,1875.289 2475.659,1885.743 2480.232,1843.275 						"/>
						<polygon style="fill:#97A6B7;" points="2130.694,1977.21 2079.08,1968.064 2123.508,1902.076 						"/>
						<polygon style="fill:#97A6B7;" points="1851.064,1921.676 1790.957,1909.263 1837.344,1853.075 						"/>
						<polygon style="fill:#97A6B7;" points="1513.286,844.969 1576.007,846.929 1551.18,892.663 						"/>
						<polygon style="fill:#97A6B7;" points="1388.498,1336.935 1445.992,1345.429 1441.418,1298.388 						"/>
						<polygon style="fill:#97A6B7;" points="1511.979,1681.247 1568.167,1690.393 1572.74,1653.153 						"/>
					</g>
					<path style="fill:#D8DEE8;" d="M2831.761,1191.165l-80.468,0.138c-5.543-53.146-18.322-104.162-37.337-152.091l68.036-39.45
						c18.594-10.782,24.952-35.099,14.234-54.371l-28.59-51.407c-10.783-19.389-34.73-26.51-53.519-15.848l-67.19,38.128
						c-31.271-43.815-68.593-83.32-110.866-117.298l38.646-66.375c11.089-19.045,4.51-44.109-14.727-56.043l-51.434-31.907
						c-19.445-12.062-44.392-6.361-55.687,12.796l-38.733,65.696c-49.769-23.179-103.549-39.899-160.273-48.868v-77.907
						c0-22.983-18.909-42.477-42.308-43.545l-62.623-2.857c-23.698-1.081-42.971,16.875-42.971,40.111v78.763
						c-58.473,4.871-114.841,18.014-167.831,38.35l-41.802-71.206c-12.284-20.925-39.568-29.038-60.98-18.058l-57.268,29.367
						c-21.656,11.106-29.092,37.239-16.567,58.306l43.313,72.849c-47.406,33.51-89.785,73.626-125.68,119.112l-78.343-44.318
						c-22.211-12.565-50.715-6.051-63.622,14.62l-34.441,55.154c-12.994,20.809-5.28,47.812,17.187,60.243l81.066,44.854
						c-22.478,51.759-37.661,107.242-44.267,165.254l-97.24,0.167c-26.171,0.045-47.456,19.878-47.456,44.298v64.943
						c0,24.42,21.286,43.951,47.456,43.625l99.822-1.242c8.427,56.655,25.073,110.59,48.727,160.663l-88.108,49.999
						c-22.467,12.749-30.181,39.861-17.187,60.486l34.441,54.667c12.908,20.487,41.411,26.598,63.622,13.718l89.116-51.674
						c35.607,42.108,77.019,79.106,122.973,109.9l-51.378,87.142c-12.525,21.244-5.09,47.272,16.567,58.071l57.268,28.556
						c21.413,10.677,48.697,2.177,60.981-18.921l50.954-87.516c50.315,17.744,103.563,29.005,158.68,32.892v97.562
						c0,23.235,19.272,40.919,42.971,39.502l62.623-3.744c23.399-1.399,42.308-21.161,42.308-44.144v-96.502
						c53.495-9.142,104.37-25.145,151.731-46.909l47.275,79.514c11.295,18.998,36.242,24.346,55.687,12.008l51.434-32.636
						c19.237-12.206,25.815-37.363,14.726-56.251l-45.893-78.173c41.079-32.504,77.65-70.108,108.761-111.698l76.542,42.352
						c18.79,10.396,42.736,2.936,53.519-16.606l28.59-51.813c10.718-19.423,4.36-43.65-14.234-54.168l-74.018-41.871
						c20.045-47.019,34.074-97.072,41.153-149.209l82.634-1.028c21.301-0.265,38.517-18.258,38.517-40.188v-58.323
						C2870.278,1208.877,2853.062,1191.128,2831.761,1191.165z M2180.306,1671.279c-238.105,8.834-437.363-175.934-437.363-412.978
						c0-237.043,199.258-424.358,437.363-418.567c230.014,5.595,410.818,190.491,410.818,413.147
						C2591.124,1475.538,2410.319,1662.745,2180.306,1671.279z"/>
				</g>
			</g>
			<g>
				<g>
					<g>
						<path style="fill:#97A6B7;" d="M3029.137,2289.158l-42.934-7.984c2.366-28.906,0.659-57.4-4.683-84.871l40.24-14.232
							c10.997-3.89,16.824-16.225,13.037-27.579l-10.101-30.286c-3.81-11.423-15.869-17.62-26.959-13.813l-39.656,13.612
							c-12.292-26.504-28.241-51.315-47.386-73.674l27.26-31.538c7.822-9.049,6.823-23.078-2.242-31.37l-24.238-22.171
							c-9.163-8.382-23.04-7.838-30.984,1.25l-27.239,31.167c-24.224-17.348-51.234-31.653-80.591-42.118l7.802-41.559
							c2.302-12.26-5.831-24.553-18.205-27.465l-33.115-7.795c-12.532-2.95-24.61,4.699-26.937,17.094l-7.888,42.016
							c-31.676-3.257-63.057-1.89-93.357,3.652l-15.165-42.171c-4.456-12.392-18.197-19.452-30.717-15.739l-33.486,9.932
							c-12.663,3.756-19.246,16.952-14.675,29.444l15.806,43.198c-28.641,13.129-55.262,30.285-78.963,50.955l-37.348-31.486
							c-10.589-8.927-26.444-8.306-35.399,1.428l-23.893,25.973c-9.014,9.799-7.604,24.976,3.134,33.858l38.746,32.045
							c-17.173,25.36-30.828,53.437-40.161,83.722l-51.882-9.648c-13.963-2.596-27.303,5.852-29.748,18.879l-6.504,34.644
							c-2.446,13.027,6.952,25.577,20.943,28.024l53.367,9.333c-1.179,31.066,2.298,61.505,9.9,90.585l-52.002,17.849
							c-13.26,4.551-20.09,18.242-15.225,30.545l12.895,32.611c4.833,12.221,19.424,18.335,32.561,13.689l52.707-18.642
							c14.774,26.028,33.157,49.911,54.584,70.94l-36.131,41.341c-8.808,10.078-7.449,24.708,3.021,32.636l27.685,20.968
							c10.352,7.84,25.755,6.038,34.42-3.987l35.942-41.583c25.059,14.504,52.333,25.843,81.342,33.436l-9.771,52.044
							c-2.327,12.395,6.182,23.758,18.964,25.375l33.777,4.273c12.62,1.597,24.685-7.052,26.987-19.312l9.665-51.479
							c29.448,0.48,58.187-2.962,85.627-9.83l17.252,47.15c4.122,11.265,16.893,16.616,28.5,11.982l30.702-12.259
							c11.483-4.585,17.511-17.346,13.488-28.533l-16.649-46.297c25.166-13.226,48.438-29.623,69.196-48.694l36.584,30.257
							c8.98,7.427,22.5,5.846,30.209-3.499l20.438-24.777c7.662-9.288,6.697-22.848-2.167-30.321l-35.286-29.748
							c15.4-23.075,27.896-48.371,36.893-75.475l44.178,7.726c11.388,1.992,22.372-5.883,24.568-17.581l5.841-31.112
							C3047.907,2302.463,3040.502,2291.271,3029.137,2289.158z M2633.585,2480.041c-127.884-19.13-215.659-137.647-191.919-264.098
							c23.74-126.451,148.778-206.421,275.197-179.489c122.123,26.017,200.042,142.754,177.744,261.53
							C2872.308,2416.76,2757.123,2498.521,2633.585,2480.041z"/>
						<polygon style="fill:#97A6B7;" points="2597.277,1889.819 2566.906,1883.026 2551.22,1908.453 						"/>
						<polygon style="fill:#97A6B7;" points="2898.017,1959.374 2933.2,1966.343 2928.319,1992.344 						"/>
						<polygon style="fill:#97A6B7;" points="3008.804,2110.017 3043.674,2118.032 3031.196,2136.06 						"/>
						<polygon style="fill:#97A6B7;" points="3032.105,2290.096 3067.065,2299.569 3052.238,2314.609 						"/>
						<polygon style="fill:#97A6B7;" points="2927.362,2522.509 2960.873,2533.893 2970.366,2506.575 						"/>
						<polygon style="fill:#97A6B7;" points="2771.788,2624.615 2801.652,2636.042 2808.4,2613.665 						"/>
						<polygon style="fill:#97A6B7;" points="2606.897,2650.403 2580.063,2640.273 2610.618,2609.271 						"/>
						<polygon style="fill:#97A6B7;" points="2462.12,2592.305 2431.048,2579.56 2461.668,2554.026 						"/>
						<polygon style="fill:#97A6B7;" points="2389.174,1979.153 2422.707,1986.54 2404.738,2008.629 						"/>
						<polygon style="fill:#97A6B7;" points="2272.393,2231.131 2302.455,2241.504 2304.745,2215.744 						"/>
						<polygon style="fill:#97A6B7;" points="2304.037,2428.767 2333.331,2439.359 2339.551,2419.793 						"/>
					</g>
					<path style="fill:#D8DEE8;" d="M3063.29,2298.455l-43.289-8.05c2.385-29.141,0.663-57.868-4.724-85.563l40.573-14.347
						c11.088-3.921,16.963-16.357,13.144-27.803l-10.185-30.533c-3.842-11.516-16.001-17.764-27.182-13.926l-39.984,13.721
						c-12.394-26.721-28.477-51.734-47.78-74.276l27.485-31.794c7.886-9.123,6.879-23.266-2.261-31.626l-24.439-22.353
						c-9.239-8.45-23.231-7.903-31.24,1.259l-27.464,31.42c-24.425-17.49-51.659-31.912-81.26-42.463l7.866-41.898
						c2.321-12.36-5.88-24.753-18.356-27.69l-33.39-7.859c-12.636-2.974-24.813,4.737-27.159,17.233l-7.952,42.358
						c-31.938-3.284-63.58-1.907-94.131,3.679l-15.292-42.515c-4.494-12.494-18.348-19.611-30.972-15.868l-33.764,10.012
						c-12.768,3.786-19.405,17.089-14.796,29.684l15.938,43.551c-28.878,13.235-55.719,30.531-79.616,51.369l-37.658-31.744
						c-10.677-9-26.663-8.374-35.692,1.439l-24.091,26.184c-9.089,9.879-7.667,25.18,3.161,34.134l39.068,32.307
						c-17.314,25.566-31.082,53.872-40.491,84.403l-52.312-9.728c-14.079-2.618-27.529,5.899-29.994,19.032l-6.557,34.926
						c-2.466,13.133,7.01,25.786,21.117,28.253l53.809,9.411c-1.188,31.32,2.318,62.006,9.984,91.323l-52.432,17.993
						c-13.37,4.588-20.256,18.39-15.35,30.794l13.003,32.877c4.873,12.321,19.585,18.485,32.831,13.801l53.143-18.792
						c14.897,26.24,33.433,50.319,55.038,71.52l-36.429,41.677c-8.881,10.16-7.51,24.909,3.046,32.903l27.915,21.139
						c10.438,7.904,25.969,6.087,34.705-4.019l36.239-41.921c25.267,14.623,52.767,26.055,82.016,33.71l-9.85,52.469
						c-2.346,12.496,6.233,23.952,19.121,25.583l34.056,4.309c12.725,1.61,24.889-7.108,27.21-19.469l9.743-51.898
						c29.692,0.484,58.668-2.985,86.336-9.908l17.396,47.535c4.156,11.357,17.033,16.752,28.736,12.08l30.956-12.358
						c11.578-4.622,17.656-17.487,13.599-28.765l-16.788-46.675c25.374-13.333,48.838-29.864,69.769-49.089l36.888,30.505
						c9.055,7.488,22.687,5.894,30.459-3.527l20.607-24.978c7.725-9.364,6.752-23.035-2.186-30.569l-35.579-29.991
						c15.528-23.263,28.126-48.765,37.197-76.089l44.544,7.79c11.482,2.008,22.557-5.93,24.771-17.724l5.889-31.366
						C3082.216,2311.869,3074.749,2300.585,3063.29,2298.455z M2664.466,2490.884c-128.944-19.289-217.448-138.774-193.516-266.256
						c23.933-127.481,150.005-208.1,277.472-180.945c123.135,26.232,201.703,143.923,179.223,263.667
						C2905.165,2427.094,2789.028,2509.517,2664.466,2490.884z"/>
				</g>
			</g>
		</g>
		<g>
			<g>
				<g>
					<g>
						<g>
							<defs>
								<path id="SVGID_1_" d="M1193.283,2568.647c-23.249,38.538-63.759,90.861-107.619,151.539l732.021,105.99
									c-81.882-222.916-197.317-457.023-24.915-844.096c80.906-181.647,295.936-501.005,207.428-713.979
									c-100.834-242.638-300.325-137.865-350.942-325.716c-79.113-293.608-329.039-497.857-597.533-351.939
									c-264.993,144.014-256.097,670.206,93.071,1245.84C1348.512,2277.626,1314.682,2367.414,1193.283,2568.647z"/>
							</defs>
							
								<linearGradient id="SVGID_00000155117567723899830190000009429541423895477397_" gradientUnits="userSpaceOnUse" x1="1727.4398" y1="1331.9315" x2="263.8579" y2="3126.8887">
								<stop  offset="0" style="stop-color:#AA80F9"/>
								<stop  offset="0.1989" style="stop-color:#9B7BF2"/>
								<stop  offset="0.9964" style="stop-color:#6165D7"/>
							</linearGradient>
							
								<use xlink:href="#SVGID_1_"  style="overflow:visible;fill:url(#SVGID_00000155117567723899830190000009429541423895477397_);"/>
							<clipPath id="SVGID_00000000220560194608237070000011066815678618327945_">
								<use xlink:href="#SVGID_1_"  style="overflow:visible;"/>
							</clipPath>
							<g style="clip-path:url(#SVGID_00000000220560194608237070000011066815678618327945_);">
								<g>
									<path style="fill:#FCFDFE;" d="M1470.251,2732.569c5.286-96.137,5.398-187.079,5.516-283.364l0.045-32.101
										c-2.8-46.367-4.302-92.16-5.754-136.446c-3.279-99.998-6.377-194.453-23.303-294.728
										c-0.327-5.857-0.358-11.545-0.387-17.571c-0.111-21.515-0.229-43.761-12.716-65.031l-0.287-0.884
										c-50.31-530.353-210.864-1059.211-477.202-1571.877l3.808-1.977c266.511,513.001,427.207,1042.235,477.622,1572.979
										c12.835,22.147,12.955,45.845,13.063,66.768c0.032,5.971,0.06,11.611,0.358,17.121
										c16.945,100.317,20.047,194.912,23.332,295.06c1.451,44.256,2.953,90.02,5.755,136.461l-0.045,32.233
										c-0.116,96.341-0.229,187.341-5.521,283.594L1470.251,2732.569z"/>
									<path style="fill:#FCFDFE;" d="M1465.319,2262.278c-4.702-250.815,127.589-548.75,239.394-754.522
										c121.08-222.841,244.879-388.599,246.116-390.245l3.433,2.573c-1.235,1.647-124.877,167.197-245.809,389.773
										c-111.546,205.303-243.528,502.478-238.845,752.342L1465.319,2262.278z"/>
									<path style="fill:#FCFDFE;" d="M1296.861,1172.23c-19.82-265.874,20.95-549.493,34.348-642.692
										c2.561-17.827,4.254-29.604,4.178-31.892l4.288-0.144c0.086,2.561-1.233,11.859-4.221,32.649
										c-13.381,93.085-54.1,376.354-34.315,641.76L1296.861,1172.23z"/>
									<path style="fill:#FCFDFE;" d="M1392.497,1597.377c-89.722-229.057-558.778-432.149-563.505-434.174l1.688-3.943
										c4.744,2.03,475.442,205.844,565.811,436.555L1392.497,1597.377z"/>
								</g>
							</g>
						</g>
					</g>
					<g>
						<g>
							<defs>
								<path id="SVGID_00000141431061729755699810000009220828423716415891_" d="M1198.119,1759.554
									c3.984,339.816,167.885,227.845,319.019,261.381c174.426,252.371,190.857,486.518-69.571,688.73l-290.182-43.426
									c-107.67-4.997-234.008-37.905-226.879-181.273c8.063-162.148,46.408-265.133-136.611-344.764
									c-183.016-79.631-261.636-224.932-187.524-390.205c77.992-173.924-104.943-408.366,28.75-524.898
									C868.072,1022.049,1193.969,1405.703,1198.119,1759.554z"/>
							</defs>
							
								<linearGradient id="SVGID_00000026877179605027640700000002455012434418214063_" gradientUnits="userSpaceOnUse" x1="717.7185" y1="1447.9225" x2="1818.5848" y2="3260.2322">
								<stop  offset="0.0036" style="stop-color:#E38DDD"/>
								<stop  offset="1" style="stop-color:#9571F6"/>
							</linearGradient>
							
								<use xlink:href="#SVGID_00000141431061729755699810000009220828423716415891_"  style="overflow:visible;fill:url(#SVGID_00000026877179605027640700000002455012434418214063_);"/>
							<clipPath id="SVGID_00000115491013187815983200000001114881219242888855_">
								<use xlink:href="#SVGID_00000141431061729755699810000009220828423716415891_"  style="overflow:visible;"/>
							</clipPath>
							<g style="clip-path:url(#SVGID_00000115491013187815983200000001114881219242888855_);">
								<g>
									<path style="fill:#FCFDFE;" d="M1270.161,2367.679c-121.153-132.543-226.121-279.829-311.989-437.769
										c-86.606-159.304-152.621-327.329-196.204-499.414c-24.992-98.676-42.635-199.21-52.436-298.808l4.366-0.427
										c9.784,99.377,27.387,199.693,52.326,298.159c43.493,171.728,109.371,339.411,195.807,498.393
										c85.698,157.628,190.46,304.626,311.371,436.905L1270.161,2367.679z"/>
									<path style="fill:#FCFDFE;" d="M957.831,2554.319l-1.992-3.913c53.896-27.455,117.471-48.865,188.961-63.636
										c34.066-7.039,67.906-11.685,100.582-13.807l0.286,4.381c-32.474,2.107-66.113,6.725-99.978,13.727
										C1074.58,2505.761,1011.377,2527.042,957.831,2554.319z"/>
									<path style="fill:#FCFDFE;" d="M1014.662,2026.867c-149.844-144.95-468.815-131.703-472.012-131.532l-0.206-4.386
										c3.232-0.141,324.059-13.514,475.272,132.764L1014.662,2026.867z"/>
									<path style="fill:#FCFDFE;" d="M829.891,1648.571c-44.851-231.244,128.459-498.47,130.214-501.141l3.667,2.41
										c-1.746,2.658-174.079,268.421-129.571,497.897L829.891,1648.571z"/>
								</g>
							</g>
						</g>
					</g>
				</g>
			</g>
		</g>
		<g>
			
				<linearGradient id="SVGID_00000042018403737064006990000013176950021899189692_" gradientUnits="userSpaceOnUse" x1="1717.6107" y1="2872.6655" x2="1535.385" y2="2949.2004">
				<stop  offset="0" style="stop-color:#40447E"/>
				<stop  offset="0.9964" style="stop-color:#3C3B6B"/>
			</linearGradient>
			<path style="fill:url(#SVGID_00000042018403737064006990000013176950021899189692_);" d="M3215.857,2772.76l-2593.807-22.798
				v67.456c0,18.309,11.313,33.877,26.635,36.651l733.451,132.832c8.704,1.576,17.531,1.995,26.315,1.247l1779.219-151.45
				c15.884-1.352,28.187-16.969,28.187-35.779V2772.76z"/>
			<g>
				
					<linearGradient id="SVGID_00000173150847391097208700000014208540781952167853_" gradientUnits="userSpaceOnUse" x1="1421.1185" y1="2062.5645" x2="1232.1807" y2="2141.9182">
					<stop  offset="0" style="stop-color:#40447E"/>
					<stop  offset="0.9964" style="stop-color:#3C3B6B"/>
				</linearGradient>
				<path style="fill:url(#SVGID_00000173150847391097208700000014208540781952167853_);" d="M2274.574,2663.411L648.872,2786.813
					c-29.091,2.208-52.744-21.256-52.744-52.414V1486.077c0-31.158,23.653-56.417,52.744-56.417h1625.703
					c23.967,0,43.344,22.833,43.344,51v1128.46C2317.918,2637.286,2298.541,2661.591,2274.574,2663.411z"/>
				
					<linearGradient id="SVGID_00000170984449286478822470000004392640439507361461_" gradientUnits="userSpaceOnUse" x1="622.0494" y1="2108.3083" x2="2343.8401" y2="2108.3083">
					<stop  offset="0" style="stop-color:#40447E"/>
					<stop  offset="0.9964" style="stop-color:#3C3B6B"/>
				</linearGradient>
				<path style="fill:url(#SVGID_00000170984449286478822470000004392640439507361461_);" d="M2300.496,2663.411L674.794,2786.813
					c-29.092,2.208-52.744-21.256-52.744-52.414V1486.077c0-31.158,23.653-56.417,52.744-56.417h1625.702
					c23.967,0,43.344,22.833,43.344,51v1128.46C2343.84,2637.286,2324.463,2661.591,2300.496,2663.411z"/>
				
					<linearGradient id="SVGID_00000013157027140326039740000012345257657754609073_" gradientUnits="userSpaceOnUse" x1="732.6468" y1="2663.3828" x2="2480.4668" y2="1240.109">
					<stop  offset="0" style="stop-color:#FFC444"/>
					<stop  offset="0.9964" style="stop-color:#F36F56"/>
				</linearGradient>
				<path style="fill:url(#SVGID_00000013157027140326039740000012345257657754609073_);" d="M2249.851,2583.852L735.679,2691.043
					c-23.674,1.676-42.912-17.583-42.912-43.019V1555.117c0-25.436,19.238-46.143,42.912-46.248l1514.172-6.731
					c19.771-0.088,35.763,18.622,35.763,41.791v995.443C2285.614,2562.539,2269.622,2582.453,2249.851,2583.852z"/>
				<path style="fill:#FFFFFF;" d="M1545.06,1463.805c0,11.599-8.367,21.029-18.7,21.063c-10.346,0.034-18.741-9.363-18.741-20.988
					c0-11.625,8.396-21.056,18.741-21.064C1536.693,1442.808,1545.06,1452.205,1545.06,1463.805z"/>
				<path style="opacity:0.48;fill:#FFFFFF;" d="M1908.809,2321.039c-125.327-72.43-223.871,19.347-318.974-71.205
					c-57.657-54.899-29.35-95.837-100.296-177.877c-78.578-90.866-129.737-60.321-208.706-142.101
					c-99.852-103.405-49.911-183.857-135.922-258.099c-104.342-90.066-216.869-6.704-316.195-93.08
					c-42.84-37.255-66.346-91.416-78.62-149.017H652.91c-17.03,0-30.86,14.826-30.86,33.115v1293.993
					c0,18.289,13.83,32.061,30.86,30.762l1656.857-126.324c8.131-0.62,15.341-5.719,19.968-13.112
					c-121.286-4.748-195.799-48.421-243.43-93.568C1993.127,2466.206,2009.289,2379.108,1908.809,2321.039z"/>
			</g>
			
				<linearGradient id="SVGID_00000150099652825502409230000011608580015618164926_" gradientUnits="userSpaceOnUse" x1="622.0494" y1="2792.2109" x2="3215.8567" y2="2792.2109">
				<stop  offset="0" style="stop-color:#40447E"/>
				<stop  offset="0.9964" style="stop-color:#3C3B6B"/>
			</linearGradient>
			<path style="fill:url(#SVGID_00000150099652825502409230000011608580015618164926_);" d="M2365.292,2657.814L622.049,2787.707
				l760.086,137.655c8.704,1.576,17.531,1.995,26.315,1.247l1807.406-153.849l-822.834-114.063
				C2383.82,2657.421,2374.539,2657.125,2365.292,2657.814z"/>
			
				<linearGradient id="SVGID_00000137130917087751696390000002010503190747105427_" gradientUnits="userSpaceOnUse" x1="876.4157" y1="2770.7632" x2="2776.8821" y2="2770.7632">
				<stop  offset="0" style="stop-color:#40447E"/>
				<stop  offset="0.9964" style="stop-color:#3C3B6B"/>
			</linearGradient>
			<polygon style="opacity:0.3;fill:url(#SVGID_00000137130917087751696390000002010503190747105427_);" points="876.416,2790.973 
				2327.717,2681.223 2776.882,2742.985 1338.083,2860.304 			"/>
			<g style="opacity:0.75;">
				<polygon style="fill:#FFFFFF;" points="1001.694,1594.687 834.959,1595.269 834.959,1541.311 1001.694,1541.311 				"/>
				<polygon style="fill:#FFFFFF;" points="1875.315,1591.637 1107.603,1594.317 1107.603,1541.311 1875.315,1541.311 				"/>
				<polygon style="fill:#FFFFFF;" points="1268.538,1683.339 1107.603,1684.861 1107.603,1631.854 1268.538,1630.895 				"/>
				<polygon style="fill:#FFFFFF;" points="2112.77,1675.357 1370.795,1682.372 1370.795,1630.285 2112.77,1625.86 				"/>
				<polygon style="fill:#FFFFFF;" points="1268.538,1772.923 1107.603,1775.404 1107.603,1722.398 1268.538,1720.478 				"/>
				<polygon style="fill:#FFFFFF;" points="2112.77,1759.906 1370.795,1771.346 1370.795,1719.259 2112.77,1710.409 				"/>
				<polygon style="fill:#FFFFFF;" points="1001.694,1868.212 834.959,1871.777 834.959,1817.819 1001.694,1814.836 				"/>
				<polygon style="fill:#FFFFFF;" points="1875.315,1849.532 1107.603,1865.948 1107.603,1812.941 1875.315,1799.206 				"/>
				<polygon style="fill:#FFFFFF;" points="1268.538,1952.09 1107.603,1956.491 1107.603,1903.485 1268.538,1899.646 				"/>
				<polygon style="fill:#FFFFFF;" points="2112.77,1929.003 1370.795,1949.293 1370.795,1897.206 2112.77,1879.506 				"/>
				<polygon style="fill:#FFFFFF;" points="1268.538,2041.673 1107.603,2047.034 1107.603,1994.028 1268.538,1989.229 				"/>
				<polygon style="fill:#FFFFFF;" points="2112.77,2013.552 1370.795,2038.267 1370.795,1986.18 2112.77,1964.055 				"/>
				<polygon style="fill:#FFFFFF;" points="1268.538,2131.257 1107.603,2137.577 1107.603,2084.571 1268.538,2078.813 				"/>
				<polygon style="fill:#FFFFFF;" points="2112.77,2098.101 1370.795,2127.241 1370.795,2075.153 2112.77,2048.604 				"/>
				<polygon style="fill:#FFFFFF;" points="1528.636,2209.074 1373.255,2216.104 1373.255,2164.024 1528.636,2157.538 				"/>
				<polygon style="fill:#FFFFFF;" points="2226.071,2177.524 1627.394,2204.607 1627.394,2153.415 2226.071,2128.422 				"/>
				<polygon style="fill:#FFFFFF;" points="1001.694,2324.087 834.959,2332.624 834.959,2278.666 1001.694,2270.711 				"/>
				<polygon style="fill:#FFFFFF;" points="1875.315,2279.356 1107.603,2318.664 1107.603,2265.658 1875.315,2229.03 				"/>
				<polygon style="fill:#FFFFFF;" points="1268.538,2400.008 1107.603,2409.208 1107.603,2356.201 1268.538,2347.563 				"/>
				<polygon style="fill:#FFFFFF;" points="2112.77,2351.747 1370.795,2394.162 1370.795,2342.074 2112.77,2302.25 				"/>
				<polygon style="fill:#FFFFFF;" points="1268.538,2489.591 1107.603,2499.751 1107.603,2446.744 1268.538,2437.146 				"/>
				<polygon style="fill:#FFFFFF;" points="2112.77,2436.295 1370.795,2483.136 1370.795,2431.048 2112.77,2386.798 				"/>
				<polygon style="fill:#FFFFFF;" points="1001.694,2597.612 834.959,2609.132 834.959,2555.174 1001.694,2544.236 				"/>
				<polygon style="fill:#FFFFFF;" points="1875.315,2537.251 1107.603,2590.294 1107.603,2537.288 1875.315,2486.925 				"/>
			</g>
		</g>
		<g>
			<g>
				
					<linearGradient id="SVGID_00000009589026773817539440000010990649869940528770_" gradientUnits="userSpaceOnUse" x1="2645.2646" y1="30.4029" x2="2659.8589" y2="3444.7981">
					<stop  offset="0" style="stop-color:#AA80F9"/>
					<stop  offset="0.9964" style="stop-color:#6165D7"/>
				</linearGradient>
				<path style="fill:url(#SVGID_00000009589026773817539440000010990649869940528770_);" d="M2915.91,2023.239
					c-94.691,186.888-223.458,206.74-261.428,208.628v0.152c0,0,1.106,0.091-1.726,0.031c-2.832,0.061-1.726-0.031-1.726-0.031
					v-0.152c-34.519-1.553-124.14-15.376-209.119-125.353c-17.934-23.201-35.717-50.696-52.22-83.275
					c-110.007-217.092-30.018-328.896-30.018-328.896l291.357-0.7v-0.031l1.726,0.031l1.726-0.031v0.031l124.14,0.305l167.706,0.395
					C2946.328,1694.343,3025.917,1806.147,2915.91,2023.239z"/>
				
					<linearGradient id="SVGID_00000112608408064543531520000015709679168293279625_" gradientUnits="userSpaceOnUse" x1="2652.0591" y1="1430.0825" x2="2654.0894" y2="1905.0665">
					<stop  offset="0" style="stop-color:#444B8C"/>
					<stop  offset="0.9964" style="stop-color:#26264F"/>
				</linearGradient>
				
					<ellipse style="fill:url(#SVGID_00000112608408064543531520000015709679168293279625_);" cx="2653.208" cy="1698.872" rx="295.823" ry="37.468"/>
				
					<linearGradient id="SVGID_00000047057044797711362110000013833895008128063638_" gradientUnits="userSpaceOnUse" x1="2699.9009" y1="35.8846" x2="2714.4573" y2="3441.4165">
					<stop  offset="0" style="stop-color:#AA80F9"/>
					<stop  offset="0.9964" style="stop-color:#6165D7"/>
				</linearGradient>
				<path style="opacity:0.3;fill:url(#SVGID_00000047057044797711362110000013833895008128063638_);" d="M2915.91,2023.239
					c-94.691,186.888-223.458,206.74-261.428,208.628v0.152c0,0,1.106,0.091-1.726,0.031c-2.832,0.061-1.726-0.031-1.726-0.031
					v-0.152c-34.519-1.553-124.14-15.376-209.119-125.353c0.488-101.269,235.45-170.081,308.859-217.031
					c92.865-59.373,18.146-190.603,18.146-190.603c3.593-1.705,7.094-3.349,10.595-4.932l167.262,0.395
					C2946.772,1694.343,3025.917,1806.147,2915.91,2023.239z"/>
			</g>
			
				<linearGradient id="SVGID_00000177476213917471767280000011398396139135260600_" gradientUnits="userSpaceOnUse" x1="2048.8672" y1="1172.3335" x2="2357.3845" y2="1172.3335">
				<stop  offset="0" style="stop-color:#444B8C"/>
				<stop  offset="0.9964" style="stop-color:#26264F"/>
			</linearGradient>
			
				<ellipse style="fill:url(#SVGID_00000177476213917471767280000011398396139135260600_);" cx="2203.126" cy="1172.333" rx="154.259" ry="197.385"/>
			
				<linearGradient id="SVGID_00000060751562365997714880000002120804857520167045_" gradientUnits="userSpaceOnUse" x1="2092.1223" y1="1216.8018" x2="3177.3398" y2="1216.8018">
				<stop  offset="0" style="stop-color:#AA80F9"/>
				<stop  offset="0.9964" style="stop-color:#6165D7"/>
			</linearGradient>
			<path style="fill:url(#SVGID_00000060751562365997714880000002120804857520167045_);" d="M3177.34,1216.802
				c0,245.56-242.942,444.596-542.61,444.596c-46.036,0-90.702-4.688-133.39-13.548
				c-235.178-48.687-409.218-223.212-409.218-431.048c0-245.531,242.942-444.597,542.608-444.597
				c84.189,0,163.9,15.711,235.027,43.753C3051.743,887.723,3177.34,1040.266,3177.34,1216.802z"/>
			<path style="fill:#F4F7FA;" d="M2272.385,1419.749l418.37,36.514c92.486,8.072,172.27-64.277,175.505-162.617l3.452-104.932
				c1.485-45.138-33.075-82.786-76.609-83.908l-596.407-15.381c-34.636-0.893-62.382,30.587-62.382,70.177v92.109
				C2134.313,1338.131,2195.237,1413.016,2272.385,1419.749z"/>
			
				<linearGradient id="SVGID_00000180347490619140030570000007811402476612946064_" gradientUnits="userSpaceOnUse" x1="4173.814" y1="1261.0996" x2="4846.481" y2="1261.0996" gradientTransform="matrix(-1 0 0 1 7010.1123 0)">
				<stop  offset="0" style="stop-color:#444B8C"/>
				<stop  offset="0.9964" style="stop-color:#26264F"/>
			</linearGradient>
			<path style="fill:url(#SVGID_00000180347490619140030570000007811402476612946064_);" d="M2262.343,1359.744l447.662,32.954
				c66.114,4.867,122.599-47.391,124.794-117.218l1.457-46.344c1.407-44.78-32.774-82.293-75.775-83.607l-533.677-16.315
				c-34.994-1.07-63.067,30.379-63.119,70.102l-0.054,41.13C2163.55,1302.452,2207.288,1355.691,2262.343,1359.744z"/>
			<path style="fill:#D8DEE8;" d="M2524.793,1319.642c-4.213-6.925-6.762-14.573-6.623-22.657
				c0.452-26.207,26.715-46.19,58.991-44.56c32.65,1.649,58.907,24.732,58.305,51.482c-0.186,8.251-3.147,15.716-7.795,22.216
				L2524.793,1319.642z"/>
			<path style="fill:#D8DEE8;" d="M2249.33,1302.291c-3.881-6.576-6.274-13.846-6.236-21.537
				c0.122-24.933,23.619-44.006,52.773-42.533c29.469,1.488,53.397,23.36,53.152,48.784c-0.076,7.843-2.662,14.947-6.78,21.139
				L2249.33,1302.291z"/>
			
				<linearGradient id="SVGID_00000140711436576529000940000017662807635219534722_" gradientUnits="userSpaceOnUse" x1="2823.1738" y1="-1788.8624" x2="2846.0391" y2="3560.5469">
				<stop  offset="0" style="stop-color:#AA80F9"/>
				<stop  offset="0.9964" style="stop-color:#6165D7"/>
			</linearGradient>
			<path style="opacity:0.3;fill:url(#SVGID_00000140711436576529000940000017662807635219534722_);" d="M3177.34,1216.802
				c0,245.56-242.942,444.596-542.61,444.596c-46.036,0-90.702-4.688-133.39-13.548
				c-42.201-133.209,196.295-279.297,333.463-372.376c168.041-114.026,34.954-459.516,34.954-459.516
				C3051.743,887.723,3177.34,1040.266,3177.34,1216.802z"/>
			
				<linearGradient id="SVGID_00000077323478006210013510000010672941702803089290_" gradientUnits="userSpaceOnUse" x1="2949.0313" y1="1249.7432" x2="3257.5488" y2="1249.7432">
				<stop  offset="0" style="stop-color:#444B8C"/>
				<stop  offset="0.9964" style="stop-color:#26264F"/>
			</linearGradient>
			
				<ellipse style="fill:url(#SVGID_00000077323478006210013510000010672941702803089290_);" cx="3103.29" cy="1249.743" rx="154.259" ry="197.385"/>
		</g>
		<g>
			
				<linearGradient id="SVGID_00000007408005948007974930000003554461514458995629_" gradientUnits="userSpaceOnUse" x1="1482.5024" y1="2045.0896" x2="1438.2128" y2="2821.3215">
				<stop  offset="0" style="stop-color:#AA80F9"/>
				<stop  offset="0.9964" style="stop-color:#6165D7"/>
			</linearGradient>
			<path style="fill:url(#SVGID_00000007408005948007974930000003554461514458995629_);" d="M1606.389,2393.228
				c36.573-20.269,25.866-135.304-23.751-216.137c-70.452-114.774-224.86-169.565-256.515-135.382
				c-32.396,34.983,60.857,166.304,76.005,187.636C1457.079,2306.729,1563.129,2417.204,1606.389,2393.228z"/>
			
				<linearGradient id="SVGID_00000070113443157005082680000000066807552646743168_" gradientUnits="userSpaceOnUse" x1="1057.7446" y1="3270.7644" x2="1168.4531" y2="3270.7644" gradientTransform="matrix(-0.9642 0.2651 0.2651 0.9642 2192.8501 -308.9189)">
				<stop  offset="0" style="stop-color:#444B8C"/>
				<stop  offset="0.9964" style="stop-color:#26264F"/>
			</linearGradient>
			<path style="fill:url(#SVGID_00000070113443157005082680000000066807552646743168_);" d="M1937.175,3126.404
				c-6.83,7.542-8.386,21.429-2.448,28.271c5.837,6.726,14.615,1.681,39.51,2.425c26.666,0.798,33.628,7.094,51.749,2.095
				c7.321-2.024,20.251-6.932,20.006-12.16c-0.173-3.677-6.756-5.574-28.741-12.941c-31.207-10.454-31.07-11.025-37.697-12.122
				C1962.908,3119.214,1946.196,3116.446,1937.175,3126.404z"/>
			
				<linearGradient id="SVGID_00000065050685331186771500000007429609879458355624_" gradientUnits="userSpaceOnUse" x1="892.4193" y1="3257.2817" x2="939.1044" y2="3160.6543" gradientTransform="matrix(-0.9802 0.1979 0.1979 0.9802 2204.0603 -227.1835)">
				<stop  offset="0" style="stop-color:#FFC444"/>
				<stop  offset="0.9964" style="stop-color:#F36F56"/>
			</linearGradient>
			<path style="fill:url(#SVGID_00000065050685331186771500000007429609879458355624_);" d="M1954.26,3082.91l13.375,44.49
				c-1.012,2.386-14.608,10.347-26.277,5.304l-19.863-43.18L1954.26,3082.91z"/>
			
				<linearGradient id="SVGID_00000034081215307837105470000006231997332602834569_" gradientUnits="userSpaceOnUse" x1="1231.1818" y1="3263.6279" x2="1341.89" y2="3263.6279" gradientTransform="matrix(-0.9642 0.2651 0.2651 0.9642 2192.8501 -308.9189)">
				<stop  offset="0" style="stop-color:#444B8C"/>
				<stop  offset="0.9964" style="stop-color:#26264F"/>
			</linearGradient>
			<path style="fill:url(#SVGID_00000034081215307837105470000006231997332602834569_);" d="M1768.056,3165.5
				c-6.831,7.542-8.387,21.43-2.448,28.272c5.837,6.727,14.615,1.683,39.509,2.424c26.666,0.797,33.628,7.094,51.749,2.096
				c7.322-2.024,20.251-6.932,20.006-12.161c-0.172-3.675-6.756-5.573-28.741-12.939c-31.207-10.455-31.069-11.025-37.697-12.123
				C1793.789,3158.312,1777.075,3155.542,1768.056,3165.5z"/>
			
				<linearGradient id="SVGID_00000116937996840251502620000007587922725038520738_" gradientUnits="userSpaceOnUse" x1="1065.9355" y1="3262.136" x2="1112.6204" y2="3165.5093" gradientTransform="matrix(-0.9802 0.1979 0.1979 0.9802 2204.0603 -227.1835)">
				<stop  offset="0" style="stop-color:#FFC444"/>
				<stop  offset="0.9964" style="stop-color:#F36F56"/>
			</linearGradient>
			<path style="fill:url(#SVGID_00000116937996840251502620000007587922725038520738_);" d="M1785.14,3122.008l13.375,44.49
				c-1.011,2.386-14.607,10.346-26.276,5.303l-19.863-43.18L1785.14,3122.008z"/>
			
				<linearGradient id="SVGID_00000142165827757770986840000003536863070158555324_" gradientUnits="userSpaceOnUse" x1="1288.2115" y1="2034.0038" x2="1243.9219" y2="2810.2351">
				<stop  offset="0" style="stop-color:#AA80F9"/>
				<stop  offset="0.9964" style="stop-color:#6165D7"/>
			</linearGradient>
			<path style="fill:url(#SVGID_00000142165827757770986840000003536863070158555324_);" d="M1032.792,2049.147
				c42.432-14.46,107.277-31.265,187.148-31.255c89.925,0.01,162.144,0.018,212.01,42.52
				c121.024,103.15-14.433,350.219,54.958,533.185c7.6,20.04,29.716,83.573,10.481,152.096
				c-3.545,12.63-10.847,23.575-23.332,42.103c-73.305,108.756-279.216,117.669-373.542,23.376
				c-49.852-49.835-94.675-40.708-95.874-97.572C999.91,2489.144,1034.735,2265.254,1032.792,2049.147z"/>
			
				<linearGradient id="SVGID_00000066474754763253544360000005298232031386719620_" gradientUnits="userSpaceOnUse" x1="1064.0646" y1="2649.2319" x2="1331.2195" y2="2310.9514">
				<stop  offset="0" style="stop-color:#AA80F9"/>
				<stop  offset="0.9964" style="stop-color:#6165D7"/>
			</linearGradient>
			<path style="opacity:0.4;fill:url(#SVGID_00000066474754763253544360000005298232031386719620_);" d="M1084.993,2319.312
				c-17.142-46.934,0.62-100.66-37.6-124.113c-14.006-8.594-31.413-12.236-50.375-11.818c2.268,164.973,5.515,329.789,9.528,501.96
				c1.326,56.865,8.436,59.679,63.558,109.515c63.869,57.742,173.934,76.592,268.336,57.7
				c-123.636-76.034-211.85-154.796-199.215-222.307c14.713-78.623,158.694-101.839,152.9-157.739
				C1285.984,2413.265,1122.465,2421.915,1084.993,2319.312z"/>
			
				<linearGradient id="SVGID_00000103224050423713443160000002049387804766193799_" gradientUnits="userSpaceOnUse" x1="1028.5157" y1="2019.1865" x2="984.226" y2="2795.4197">
				<stop  offset="0" style="stop-color:#AA80F9"/>
				<stop  offset="0.9964" style="stop-color:#6165D7"/>
			</linearGradient>
			<path style="fill:url(#SVGID_00000103224050423713443160000002049387804766193799_);" d="M1072.114,2054.223
				c-41.565-28.062-141.711,42.706-197.225,105c-25.802,28.95-115.638,129.748-93.318,265.155
				c3.636,22.066,20.383,125.232,108.698,175.766c79.073,45.248,185.846,33.609,271.394-30.475
				c11.689-10.374,23.382-20.745,35.074-31.121c11.502-12.431,23.005-24.863,34.506-37.297
				c-18.081-15.04-48.802-36.736-91.944-50.656c-65.742-21.213-108.963,10.26-124.686-10.459
				c-19.358-25.509,39.574-73.035,55.038-181.157C1073.821,2229.801,1118.542,2085.568,1072.114,2054.223z"/>
			
				<linearGradient id="SVGID_00000132081233913098324510000004966067640380460932_" gradientUnits="userSpaceOnUse" x1="1446.6803" y1="3055.6287" x2="1818.6193" y2="2584.6672">
				<stop  offset="0" style="stop-color:#FF9085"/>
				<stop  offset="1" style="stop-color:#FB6FBB"/>
			</linearGradient>
			<path style="fill:url(#SVGID_00000132081233913098324510000004966067640380460932_);" d="M1140.298,2760.249
				c-27.468,89.388,23.389,53.048,126.964,2.02c109.085-53.743,347.536-130.922,450.283-29.83
				c76.523,75.292,22.391,194.338,140.784,325.375c20.855,23.082,40.621,39.204,52.973,48.559
				c21.336-8.829,42.672-17.656,64.009-26.486c8.371-48.886,34.739-237.342-83.873-406.125
				c-28.677-40.806-83.225-119.152-176.576-152.296C1462.488,2431.865,1165.628,2677.807,1140.298,2760.249z"/>
			
				<linearGradient id="SVGID_00000145748311863425812380000009045484833643197859_" gradientUnits="userSpaceOnUse" x1="1668.1489" y1="2620.6431" x2="1236.6294" y2="3098.6343">
				<stop  offset="0" style="stop-color:#FF9085"/>
				<stop  offset="1" style="stop-color:#FB6FBB"/>
			</linearGradient>
			<path style="fill:url(#SVGID_00000145748311863425812380000009045484833643197859_);" d="M1039.591,2676.85
				c-17.783,51.343-1.777,110.349,27.279,147.009c64.5,81.38,209.3,72.82,299.743,42.766
				c110.047-36.565,134.626-103.158,177.902-86.791c67.247,25.435,19.4,191.027,140.785,325.376
				c20.855,23.081,40.621,39.2,52.972,48.56c21.335-8.831,42.672-17.658,64.008-26.49c16.115-113.837,4.339-205.046-7.932-263.306
				c-14.073-66.809-26.68-126.661-73.753-184.383c-58.486-71.715-134.911-96.902-178.763-110.73
				C1356.305,2510.359,1085.794,2543.448,1039.591,2676.85z"/>
			<g>
				
					<linearGradient id="SVGID_00000123439988948891726490000012838468836120689847_" gradientUnits="userSpaceOnUse" x1="1465.1204" y1="2745.1018" x2="1404.5336" y2="2573.439">
					<stop  offset="0" style="stop-color:#311944"/>
					<stop  offset="1" style="stop-color:#893976"/>
				</linearGradient>
				<polygon style="fill:url(#SVGID_00000123439988948891726490000012838468836120689847_);" points="1641.142,2538.039 
					1140.298,2530.563 1273.48,2594.839 1642.424,2570.692 				"/>
				
					<linearGradient id="SVGID_00000114771152424248225460000000417149646768501635_" gradientUnits="userSpaceOnUse" x1="1200.4437" y1="2496.3889" x2="1222.6589" y2="2649.8755">
					<stop  offset="0" style="stop-color:#311944"/>
					<stop  offset="1" style="stop-color:#893976"/>
				</linearGradient>
				<path style="fill:url(#SVGID_00000114771152424248225460000000417149646768501635_);" d="M1122.622,2543.871v0.004
					c0,9.372,5.867,17.745,14.675,20.948l160.037,62.739l0.728-43.497l-157.764-53.503
					C1131.445,2528.019,1122.622,2534.663,1122.622,2543.871z"/>
			</g>
			
				<linearGradient id="SVGID_00000031172629844438710360000002088679390046745250_" gradientUnits="userSpaceOnUse" x1="1193.7803" y1="2530.0154" x2="1319.3347" y2="2530.0154">
				<stop  offset="0" style="stop-color:#FFC444"/>
				<stop  offset="0.9964" style="stop-color:#F36F56"/>
			</linearGradient>
			<path style="fill:url(#SVGID_00000031172629844438710360000002088679390046745250_);" d="M1194.126,2523.77
				c-3.073-0.685,14.976-36.648,29.145-32.498c14.166,4.151,83.465,44.312,89.763,60.85c6.3,16.536,6.3,16.536,6.3,16.536
				s-30.228,2.363-48.976-3.936C1251.611,2558.422,1219.123,2529.343,1194.126,2523.77z"/>
			<g>
				<g>
					
						<linearGradient id="SVGID_00000018220092715488010510000010935747661333407155_" gradientUnits="userSpaceOnUse" x1="1640.6261" y1="2509.8318" x2="1522.504" y2="2342.0986">
						<stop  offset="0" style="stop-color:#444B8C"/>
						<stop  offset="0.9964" style="stop-color:#26264F"/>
					</linearGradient>
					<path style="fill:url(#SVGID_00000018220092715488010510000010935747661333407155_);" d="M1311.347,2278.882l-35.302,321.441
						c-1.219,11.091,14.309,27.616,25.454,27.088l517.9-31.794c8.511-0.405,15.596-6.667,17.036-15.064l65.003-310.455
						c1.94-11.297-18.368-22.966-29.828-22.646l-542.726,15.261C1319.822,2262.967,1312.337,2269.868,1311.347,2278.882z"/>
					
						<linearGradient id="SVGID_00000055704697548007880320000001465103501593389978_" gradientUnits="userSpaceOnUse" x1="1414.047" y1="2787.4272" x2="1672.5514" y2="2262.3406">
						<stop  offset="0" style="stop-color:#311944"/>
						<stop  offset="1" style="stop-color:#893976"/>
					</linearGradient>
					<path style="fill:url(#SVGID_00000055704697548007880320000001465103501593389978_);" d="M1323.184,2288.252l-35.306,321.443
						c-1.216,11.092,7.764,20.647,18.91,20.122l524.449-24.828c8.51-0.403,15.594-6.669,17.037-15.063l53.579-311.875
						c1.941-11.3-6.945-21.549-18.405-21.226l-542.727,15.26C1331.66,2272.339,1324.173,2279.242,1323.184,2288.252z"/>
				</g>
				
					<linearGradient id="SVGID_00000154413369306383850760000016114639432288987556_" gradientUnits="userSpaceOnUse" x1="1287.7681" y1="2450.4094" x2="1855.668" y2="2450.4094">
					<stop  offset="0" style="stop-color:#311944"/>
					<stop  offset="1" style="stop-color:#893976"/>
				</linearGradient>
				<path style="opacity:0.3;fill:url(#SVGID_00000154413369306383850760000016114639432288987556_);" d="M1631.14,2529.667
					c-45.793-19.408-29.629-56.421-83.705-102.54c-71.339-60.843-144.052-34.457-169.507-81.615
					c-7.926-14.688-11.714-37.542,2.095-74.531l-39.301,1.104c-9.062,0.253-16.549,7.156-17.538,16.167l-35.306,321.443
					c-1.214,11.091,7.765,20.647,18.91,20.122l524.449-24.828c8.51-0.403,15.594-6.666,17.037-15.063l7.393-43.036
					c-15.913-8.855-34.927-16.908-57.114-21.408C1721.612,2509.875,1683.862,2552.012,1631.14,2529.667z"/>
			</g>
			<g>
				
					<linearGradient id="SVGID_00000141457057286854088090000004260990426973491084_" gradientUnits="userSpaceOnUse" x1="1644.1843" y1="1836.4943" x2="1656.6906" y2="1503.3719" gradientTransform="matrix(0.917 0.3988 -0.3988 0.917 399.6047 -184.8945)">
					<stop  offset="0" style="stop-color:#FFC444"/>
					<stop  offset="0.9964" style="stop-color:#F36F56"/>
				</linearGradient>
				<path style="fill:url(#SVGID_00000141457057286854088090000004260990426973491084_);" d="M1228.338,1895.035
					c0.278,33.338-3.441,59.777-6.959,77.883c-4.03,20.746-6.934,26.105-10.641,30.453c-5.579,6.548-14.034,12.038-61.806,23.884
					c-25.996,6.444-29.34,6.269-29.916,8.849c-2.8,12.585,68.087,55.476,141.322,45.14c44.822-6.327,85.602-31.898,83.1-45.327
					c-2.519-13.515-47.292-6.262-60.636-30.712c-9.281-17.009,1.124-41.154,13.424-61.151
					C1284.312,1921.734,1240.249,1917.355,1228.338,1895.035z"/>
				<g>
					
						<linearGradient id="SVGID_00000096030900967567680000000013378522513126323114_" gradientUnits="userSpaceOnUse" x1="848.1857" y1="1900.1848" x2="763.3954" y2="1684.8329" gradientTransform="matrix(-0.9687 -0.2485 -0.2485 0.9687 2456.1904 427.3052)">
						<stop  offset="0" style="stop-color:#311944"/>
						<stop  offset="1" style="stop-color:#6B3976"/>
					</linearGradient>
					<path style="fill:url(#SVGID_00000096030900967567680000000013378522513126323114_);" d="M1322.394,1937.425
						c13.778-10.931,20.592-34.505,12.704-52.584c-6.787-15.556-22.28-21.556-31.555-25.153
						c-26.877-10.416-64.852-7.954-83.656,14.383c-11.142,13.237-3.733,48.7-2.762,54.981c1.101,7.104,5.541,10.599,8.92,16.633
						c4.682,8.369,11.969,21.632,23.751,43.708c2.644-4.92,6.277-10.917,11.194-17.163c1.893-2.404,9.417-11.758,18.914-18.667
						C1298.933,1939.712,1309.333,1947.786,1322.394,1937.425z"/>
					
						<linearGradient id="SVGID_00000125582692456735634230000013104395515716987324_" gradientUnits="userSpaceOnUse" x1="628.0769" y1="1735.8794" x2="624.1773" y2="2050.0659" gradientTransform="matrix(0.982 0.1887 -0.1887 0.982 983.7829 102.0635)">
						<stop  offset="0" style="stop-color:#FFC444"/>
						<stop  offset="0.9964" style="stop-color:#F36F56"/>
					</linearGradient>
					<path style="fill:url(#SVGID_00000125582692456735634230000013104395515716987324_);" d="M1230.276,1968.324
						c0,0,10.433,34.631,47.318,41.717c33.024,6.344,56.745-65.242,40.03-86.098c-5.578-6.957-18.88-12.707-30.97-12.484
						c-7.142,0.133-10.116,2.31-21.787,2.298c-10.769-0.01-13.325-1.869-17.037-0.101c-4.642,2.214-9.478,9.345-8.664,32.289
						c-4.563-7.886-11.372-12.23-17.289-11.115c-0.944,0.18-3.568,1.115-5.422,3.087
						C1209.748,1945.051,1214.578,1957.652,1230.276,1968.324z"/>
					
						<linearGradient id="SVGID_00000050660148355759701200000001049287120994214276_" gradientUnits="userSpaceOnUse" x1="822.2794" y1="1910.4933" x2="737.4065" y2="1694.9315" gradientTransform="matrix(-0.9687 -0.2485 -0.2485 0.9687 2456.1904 427.3052)">
						<stop  offset="0" style="stop-color:#311944"/>
						<stop  offset="1" style="stop-color:#6B3976"/>
					</linearGradient>
					<path style="fill:url(#SVGID_00000050660148355759701200000001049287120994214276_);" d="M1247.494,1908.918
						c1.263,1.575-5.047,6.172-7.557,14.348c-4.875,15.871,6.355,39.371,22.504,45.322c9.548,3.518,13.781-1.687,30.426,0.82
						c10.305,1.552,18.323,5.003,23.276,7.518c0.505,18.931-8.855,35.238-22.744,40.317c-14.953,5.468-29.751-4.066-35.938-8.054
						c-4.138-2.667-17.409-11.18-21.526-26.455c-4.287-15.918,5.639-22.255-0.981-33.989c-3.338-5.919-8.807-9.53-12.267-20.207
						c-0.94-2.901-1.427-5.377-1.688-7.026C1231.69,1914.818,1245.668,1906.636,1247.494,1908.918z"/>
					
						<linearGradient id="SVGID_00000005232219350761348210000010799994209462307994_" gradientUnits="userSpaceOnUse" x1="739.2111" y1="1780.6069" x2="743.625" y2="1819.9573" gradientTransform="matrix(-0.9687 -0.2485 -0.2485 0.9687 2456.1904 427.3052)">
						<stop  offset="0" style="stop-color:#FFC444"/>
						<stop  offset="1" style="stop-color:#F36F56"/>
					</linearGradient>
					<path style="fill:url(#SVGID_00000005232219350761348210000010799994209462307994_);" d="M1302.656,1980.383
						c0,0-7.968,1.837-19.909-2c-0.581-0.189-1.277-0.185-1.431,0.102c-0.578,1.077,5.855,8.256,13.542,8.108
						c5.459-0.107,10.672-3.89,10.307-5.294C1305.007,1980.709,1303.84,1980.476,1302.656,1980.383z"/>
				</g>
			</g>
		</g>
	</g>
</g>
</svg>
